<svg xmlns="http://www.w3.org/2000/svg" style="display:none" aria-hidden="true">
  <!-- Letter of Credit: document with seal -->
  <symbol id="file-badge" viewBox="0 0 24 24">
    <path d="M12 22h6a2 2 0 0 0 2-2V7l-5-5H6a2 2 0 0 0-2 2v3"/>
    <path d="M14 2v4a2 2 0 0 0 2 2h4"/>
    <path d="M5 17a3 3 0 1 0 0-6 3 3 0 0 0 0 6Z"/>
    <path d="M7 16.5 8 22l-3-1-3 1 1-5.5"/>
  </symbol>
  <!-- Bank guarantee: bank building -->
  <symbol id="landmark" viewBox="0 0 24 24">
    <line x1="3" x2="21" y1="22" y2="22"/>
    <line x1="6" x2="6" y1="18" y2="11"/>
    <line x1="10" x2="10" y1="18" y2="11"/>
    <line x1="14" x2="14" y1="18" y2="11"/>
    <line x1="18" x2="18" y1="18" y2="11"/>
    <polygon points="12 2 20 7 4 7"/>
  </symbol>
  <!-- Invoice discounting: rupee receipt -->
  <symbol id="receipt" viewBox="0 0 24 24">
    <path d="M4 2v20l2-1 2 1 2-1 2 1 2-1 2 1 2-1 2 1V2l-2 1-2-1-2 1-2-1-2 1-2-1-2 1Z"/>
    <path d="M8 7h8"/>
    <path d="M8 11h8"/>
    <path d="M12 17.5 8 15h1a4 4 0 0 0 0-8"/>
  </symbol>
  <!-- Sales invoice / receivables out -->
  <symbol id="file-up" viewBox="0 0 24 24">
    <path d="M15 2H6a2 2 0 0 0-2 2v16a2 2 0 0 0 2 2h12a2 2 0 0 0 2-2V7Z"/>
    <path d="M14 2v4a2 2 0 0 0 2 2h4"/>
    <path d="M12 18v-6"/>
    <path d="m15 15-3-3-3 3"/>
  </symbol>
  <!-- Import / export: globe -->
  <symbol id="globe" viewBox="0 0 24 24">
    <circle cx="12" cy="12" r="10"/>
    <path d="M12 2a14.5 14.5 0 0 0 0 20 14.5 14.5 0 0 0 0-20"/>
    <path d="M2 12h20"/>
  </symbol>
  <!-- Underwriting: magnifier with check -->
  <symbol id="search-check" viewBox="0 0 24 24">
    <path d="m8 11 2 2 4-4"/>
    <circle cx="11" cy="11" r="8"/>
    <path d="m21 21-4.3-4.3"/>
  </symbol>
  <!-- Financial analysis: bar chart -->
  <symbol id="chart" viewBox="0 0 24 24">
    <path d="M3 3v18h18"/>
    <path d="M18 17V9"/>
    <path d="M13 17V5"/>
    <path d="M8 17v-3"/>
  </symbol>
  <!-- Credit rating: gauge -->
  <symbol id="gauge" viewBox="0 0 24 24">
    <path d="m12 14 4-4"/>
    <path d="M3.34 19a10 10 0 1 1 17.32 0"/>
  </symbol>
  <!-- CIBIL audit: document under magnifier -->
  <symbol id="file-search" viewBox="0 0 24 24">
    <path d="M15 2H6a2 2 0 0 0-2 2v16a2 2 0 0 0 2 2h12a2 2 0 0 0 2-2V7Z"/>
    <path d="M14 2v4a2 2 0 0 0 2 2h4"/>
    <circle cx="11.5" cy="14.5" r="2.5"/>
    <path d="M13.3 16.3 15 18"/>
  </symbol>
  <!-- Capital structuring: coins -->
  <symbol id="coins" viewBox="0 0 24 24">
    <circle cx="8" cy="8" r="6"/>
    <path d="M18.09 10.37A6 6 0 1 1 10.34 18"/>
    <path d="M7 6h1v4"/>
    <path d="m16.71 13.88.7.71-2.82 2.82"/>
  </symbol>
  <!-- Lender matching: handshake -->
  <symbol id="handshake" viewBox="0 0 24 24">
    <path d="m11 17 2 2a1 1 0 1 0 3-3"/>
    <path d="m14 14 2.5 2.5a1 1 0 1 0 3-3l-3.88-3.88a3 3 0 0 0-4.24 0l-.88.88a1 1 0 1 1-3-3l2.81-2.81a5.79 5.79 0 0 1 7.06-.87l.47.28a2 2 0 0 0 1.42.25L21 4"/>
    <path d="m21 3 1 11h-2"/>
    <path d="M3 3 2 14l6.5 6.5a1 1 0 1 0 3-3"/>
    <path d="M3 4h8"/>
  </symbol>
  <!-- Loan processing / process discipline: checklist -->
  <symbol id="list-checks" viewBox="0 0 24 24">
    <path d="m3 17 2 2 4-4"/>
    <path d="m3 7 2 2 4-4"/>
    <path d="M13 6h8"/>
    <path d="M13 12h8"/>
    <path d="M13 18h8"/>
  </symbol>
  <!-- Unsecured loans: briefcase -->
  <symbol id="briefcase" viewBox="0 0 24 24">
    <path d="M16 20V4a2 2 0 0 0-2-2h-4a2 2 0 0 0-2 2v16"/>
    <rect width="20" height="14" x="2" y="6" rx="2"/>
  </symbol>
  <!-- Project loans: building -->
  <symbol id="building" viewBox="0 0 24 24">
    <path d="M6 22V4a2 2 0 0 1 2-2h8a2 2 0 0 1 2 2v18Z"/>
    <path d="M6 12H4a2 2 0 0 0-2 2v6a2 2 0 0 0 2 2h2"/>
    <path d="M18 9h2a2 2 0 0 1 2 2v9a2 2 0 0 1-2 2h-2"/>
    <path d="M10 6h4"/>
    <path d="M10 10h4"/>
    <path d="M10 14h4"/>
    <path d="M10 18h4"/>
  </symbol>
  <!-- Exporter & importer: ship -->
  <symbol id="ship" viewBox="0 0 24 24">
    <path d="M12 10.189V14"/>
    <path d="M12 2v3"/>
    <path d="M19 13V7a2 2 0 0 0-2-2H7a2 2 0 0 0-2 2v6"/>
    <path d="M19.38 20A11.6 11.6 0 0 0 21 14l-8.188-3.639a2 2 0 0 0-1.624 0L3 14a11.6 11.6 0 0 0 1.62 6"/>
    <path d="M2 21c.6.5 1.2 1 2.5 1 2.5 0 2.5-2 5-2 1.3 0 1.9.5 2.5 1s1.2 1 2.5 1c2.5 0 2.5-2 5-2 1.3 0 1.9.5 2.5 1"/>
  </symbol>
  <!-- Specialized loans: layers -->
  <symbol id="layers" viewBox="0 0 24 24">
    <path d="m12.83 2.18a2 2 0 0 0-1.66 0L2.6 6.08a1 1 0 0 0 0 1.83l8.58 3.91a2 2 0 0 0 1.66 0l8.58-3.9a1 1 0 0 0 0-1.83Z"/>
    <path d="m22 17.65-9.17 4.16a2 2 0 0 1-1.66 0L2 17.65"/>
    <path d="m22 12.65-9.17 4.16a2 2 0 0 1-1.66 0L2 12.65"/>
  </symbol>
  <!-- Allied services: compass -->
  <symbol id="compass" viewBox="0 0 24 24">
    <circle cx="12" cy="12" r="10"/>
    <polygon points="16.24 7.76 14.12 14.12 7.76 16.24 9.88 9.88 16.24 7.76"/>
  </symbol>
  <!-- Risk: shield with check -->
  <symbol id="shield-check" viewBox="0 0 24 24">
    <path d="M20 13c0 5-3.5 7.5-7.66 8.95a1 1 0 0 1-.67-.01C7.5 20.5 4 18 4 13V6a1 1 0 0 1 1-1c2 0 4.5-1.2 6.24-2.72a1.17 1.17 0 0 1 1.52 0C14.51 3.81 17 5 19 5a1 1 0 0 1 1 1z"/>
    <path d="m9 12 2 2 4-4"/>
  </symbol>
  <!-- Personalized structuring: sliders -->
  <symbol id="sliders" viewBox="0 0 24 24">
    <line x1="4" x2="4" y1="21" y2="14"/>
    <line x1="4" x2="4" y1="10" y2="3"/>
    <line x1="12" x2="12" y1="21" y2="12"/>
    <line x1="12" x2="12" y1="8" y2="3"/>
    <line x1="20" x2="20" y1="21" y2="16"/>
    <line x1="20" x2="20" y1="12" y2="3"/>
    <line x1="2" x2="6" y1="14" y2="14"/>
    <line x1="10" x2="14" y1="8" y2="8"/>
    <line x1="18" x2="22" y1="16" y2="16"/>
  </symbol>
  <!-- Faster processing: timer -->
  <symbol id="timer" viewBox="0 0 24 24">
    <line x1="10" x2="14" y1="2" y2="2"/>
    <line x1="12" x2="15" y1="14" y2="11"/>
    <circle cx="12" cy="14" r="8"/>
  </symbol>
  <!-- Transparent tracking: eye -->
  <symbol id="eye" viewBox="0 0 24 24">
    <path d="M2.062 12.348a1 1 0 0 1 0-.696 10.75 10.75 0 0 1 19.876 0 1 1 0 0 1 0 .696 10.75 10.75 0 0 1-19.876 0"/>
    <circle cx="12" cy="12" r="3"/>
  </symbol>
  <!-- Workflow steps: milestone -->
  <symbol id="milestone" viewBox="0 0 24 24">
    <path d="M12 13v8"/>
    <path d="M12 3v3"/>
    <path d="M4 6a1 1 0 0 0-1 1v5a1 1 0 0 0 1 1h13a2 2 0 0 0 1.152-.365l3.424-2.317a1 1 0 0 0 0-1.635l-3.424-2.318A2 2 0 0 0 17 6z"/>
  </symbol>
  <!-- Compliance: document with check -->
  <symbol id="file-check" viewBox="0 0 24 24">
    <path d="M15 2H6a2 2 0 0 0-2 2v16a2 2 0 0 0 2 2h12a2 2 0 0 0 2-2V7Z"/>
    <path d="M14 2v4a2 2 0 0 0 2 2h4"/>
    <path d="m9 15 2 2 4-4"/>
  </symbol>
  <!-- Mission: target -->
  <symbol id="target" viewBox="0 0 24 24">
    <circle cx="12" cy="12" r="10"/>
    <circle cx="12" cy="12" r="6"/>
    <circle cx="12" cy="12" r="2"/>
  </symbol>
  <!-- Vision / growth: trend line -->
  <symbol id="trending-up" viewBox="0 0 24 24">
    <polyline points="22 7 13.5 15.5 8.5 10.5 2 17"/>
    <polyline points="16 7 22 7 22 13"/>
  </symbol>
  <!-- Financial trust: scales -->
  <symbol id="scale" viewBox="0 0 24 24">
    <path d="m16 16 3-8 3 8c-.87.65-1.92 1-3 1s-2.13-.35-3-1Z"/>
    <path d="m2 16 3-8 3 8c-.87.65-1.92 1-3 1s-2.13-.35-3-1Z"/>
    <path d="M7 21h10"/>
    <path d="M12 3v18"/>
    <path d="M3 7h2c2 0 5-1 7-2 2 1 5 2 7 2h2"/>
  </symbol>
  <!-- Client-first: people -->
  <symbol id="users" viewBox="0 0 24 24">
    <path d="M16 21v-2a4 4 0 0 0-4-4H6a4 4 0 0 0-4 4v2"/>
    <circle cx="9" cy="7" r="4"/>
    <path d="M22 21v-2a4 4 0 0 0-3-3.87"/>
    <path d="M16 3.13a4 4 0 0 1 0 7.75"/>
  </symbol>
  <!-- Expertise: award -->
  <symbol id="award" viewBox="0 0 24 24">
    <circle cx="12" cy="8" r="6"/>
    <path d="M15.477 12.89 17 22l-5-3-5 3 1.523-9.11"/>
  </symbol>
  <!-- Contact -->
  <symbol id="map-pin" viewBox="0 0 24 24">
    <path d="M20 10c0 4.993-5.539 10.193-7.399 11.799a1 1 0 0 1-1.202 0C9.539 20.193 4 14.993 4 10a8 8 0 0 1 16 0"/>
    <circle cx="12" cy="10" r="3"/>
  </symbol>
  <symbol id="mail" viewBox="0 0 24 24">
    <rect width="20" height="16" x="2" y="4" rx="2"/>
    <path d="m22 7-8.97 5.7a1.94 1.94 0 0 1-2.06 0L2 7"/>
  </symbol>
  <symbol id="phone" viewBox="0 0 24 24">
    <path d="M22 16.92v3a2 2 0 0 1-2.18 2 19.79 19.79 0 0 1-8.63-3.07 19.5 19.5 0 0 1-6-6 19.79 19.79 0 0 1-3.07-8.67A2 2 0 0 1 4.11 2h3a2 2 0 0 1 2 1.72 12.84 12.84 0 0 0 .7 2.81 2 2 0 0 1-.45 2.11L8.09 9.91a16 16 0 0 0 6 6l1.27-1.27a2 2 0 0 1 2.11-.45 12.84 12.84 0 0 0 2.81.7A2 2 0 0 1 22 16.92z"/>
  </symbol>
  <symbol id="clock" viewBox="0 0 24 24">
    <circle cx="12" cy="12" r="10"/>
    <polyline points="12 6 12 12 16 14"/>
  </symbol>
  <!-- UI -->
  <symbol id="arrow-right" viewBox="0 0 24 24">
    <path d="M5 12h14"/>
    <path d="m12 5 7 7-7 7"/>
  </symbol>
  <symbol id="check" viewBox="0 0 24 24">
    <path d="M20 6 9 17l-5-5"/>
  </symbol>
  <symbol id="sun" viewBox="0 0 24 24">
    <circle cx="12" cy="12" r="4"/>
    <path d="M12 2v2"/>
    <path d="M12 20v2"/>
    <path d="m4.93 4.93 1.41 1.41"/>
    <path d="m17.66 17.66 1.41 1.41"/>
    <path d="M2 12h2"/>
    <path d="M20 12h2"/>
    <path d="m6.34 17.66-1.41 1.41"/>
    <path d="m19.07 4.93-1.41 1.41"/>
  </symbol>
  <symbol id="moon" viewBox="0 0 24 24">
    <path d="M12 3a6 6 0 0 0 9 9 9 9 0 1 1-9-9Z"/>
  </symbol>
</svg>
